<svg xmlns="http://www.w3.org/2000/svg" viewBox="0 0 1440 1000" fill="none">
  <g stroke="#000" stroke-width="1" stroke-linecap="round" stroke-linejoin="round">
    <path d="M820-120c-190 120-170 270 5 370s220 155 190 290 45 215 265 250M860-90c-175 115-157 245 12 337s215 160 182 289 58 206 255 240M900-65c-159 100-139 222 26 310s205 161 174 284 68 193 239 224"/>
    <circle cx="1290" cy="185" r="150"/>
    <circle cx="1290" cy="185" r="119"/>
    <path d="M1290 20v30M1290 320v30M1125 185h30M1425 185h30m-157-15 33-47-12 55-21-8Z"/>
    <path d="M-70 880c175-160 272-105 377-185s115-223 268-245 183-74 238-170" stroke-dasharray="3 12"/>
    <circle cx="307" cy="695" r="8"/>
    <circle cx="575" cy="450" r="8"/>
    <circle cx="813" cy="280" r="8"/>
    <path d="M60 780c55-23 113-16 174 20 61-36 119-43 174-20v146c-55-23-113-16-174 20-61-36-119-43-174-20V780Zm174 20v146M90 817c38-12 76-7 111 12M268 829c35-19 73-24 110-12M90 856c38-12 76-7 111 12M268 868c35-19 73-24 110-12"/>
    <path d="M1020 952h335M1175 927v50M1090 940v24M1260 940v24"/>
  </g>
</svg>
